<?xml version="1.0" standalone="no"?>
<svg xmlns:xlink="http://www.w3.org/1999/xlink" id="wave" style="transform:rotate(180deg); transition: 0.3s" viewBox="0 0 1440 100" version="1.1" xmlns="http://www.w3.org/2000/svg"><defs><linearGradient id="sw-gradient-0" x1="0" x2="0" y1="1" y2="0"><stop stop-color="rgba(255, 249, 234, 1)" offset="0%"/><stop stop-color="rgba(255, 249, 234, 1)" offset="100%"/></linearGradient></defs><path style="transform:translate(0, 0px); opacity:1" fill="url(#sw-gradient-0)" d="M0,40L26.7,45C53.3,50,107,60,160,60C213.3,60,267,50,320,40C373.3,30,427,20,480,15C533.3,10,587,10,640,13.3C693.3,17,747,23,800,26.7C853.3,30,907,30,960,35C1013.3,40,1067,50,1120,60C1173.3,70,1227,80,1280,78.3C1333.3,77,1387,63,1440,48.3C1493.3,33,1547,17,1600,15C1653.3,13,1707,27,1760,28.3C1813.3,30,1867,20,1920,28.3C1973.3,37,2027,63,2080,75C2133.3,87,2187,83,2240,83.3C2293.3,83,2347,87,2400,76.7C2453.3,67,2507,43,2560,40C2613.3,37,2667,53,2720,56.7C2773.3,60,2827,50,2880,51.7C2933.3,53,2987,67,3040,60C3093.3,53,3147,27,3200,18.3C3253.3,10,3307,20,3360,26.7C3413.3,33,3467,37,3520,36.7C3573.3,37,3627,33,3680,36.7C3733.3,40,3787,50,3813,55L3840,60L3840,100L3813.3,100C3786.7,100,3733,100,3680,100C3626.7,100,3573,100,3520,100C3466.7,100,3413,100,3360,100C3306.7,100,3253,100,3200,100C3146.7,100,3093,100,3040,100C2986.7,100,2933,100,2880,100C2826.7,100,2773,100,2720,100C2666.7,100,2613,100,2560,100C2506.7,100,2453,100,2400,100C2346.7,100,2293,100,2240,100C2186.7,100,2133,100,2080,100C2026.7,100,1973,100,1920,100C1866.7,100,1813,100,1760,100C1706.7,100,1653,100,1600,100C1546.7,100,1493,100,1440,100C1386.7,100,1333,100,1280,100C1226.7,100,1173,100,1120,100C1066.7,100,1013,100,960,100C906.7,100,853,100,800,100C746.7,100,693,100,640,100C586.7,100,533,100,480,100C426.7,100,373,100,320,100C266.7,100,213,100,160,100C106.7,100,53,100,27,100L0,100Z"/></svg>